<?xml version="1.0" encoding="utf-8"?>
<!-- Generator: Adobe Illustrator 21.1.0, SVG Export Plug-In . SVG Version: 6.00 Build 0)  -->
<svg version="1.1" id="Layer_1" xmlns="http://www.w3.org/2000/svg" xmlns:xlink="http://www.w3.org/1999/xlink" x="0px" y="0px"
	 viewBox="0 0 50 50" style="enable-background:new 0 0 50 50;" xml:space="preserve">
<style type="text/css">
	.st0{fill:#FFFFFF;}
</style>
<g>
	<path class="st0" d="M26.6,23.1L26.6,23.1C26.6,23,26.5,23.1,26.6,23.1L26.6,23.1z"/>
	<path class="st0" d="M25,0C11.2,0,0,11.2,0,25s11.2,25,25,25s25-11.2,25-25S38.8,0,25,0z M17.9,37.5h-5.6V20.6h5.6V37.5z
		 M15.1,18.3L15.1,18.3c-1.9,0-3.1-1.3-3.1-2.9c0-1.7,1.3-2.9,3.2-2.9c1.9,0,3.1,1.3,3.1,2.9C18.2,17,17,18.3,15.1,18.3z M38.1,37.5
		h-5.6v-9c0-2.3-0.8-3.8-2.8-3.8c-1.6,0-2.5,1-2.9,2.1c-0.1,0.4-0.2,0.9-0.2,1.4v9.4H21c0,0,0.1-15.3,0-16.9h5.6V23
		c0.7-1.1,2.1-2.8,5.1-2.8c3.7,0,6.5,2.4,6.5,7.6V37.5z"/>
</g>
</svg>
