<?xml version="1.0" encoding="utf-8"?>
<!-- Generator: Adobe Illustrator 21.1.0, SVG Export Plug-In . SVG Version: 6.00 Build 0)  -->
<svg version="1.1" id="Layer_1" xmlns="http://www.w3.org/2000/svg" xmlns:xlink="http://www.w3.org/1999/xlink" x="0px" y="0px"
	 viewBox="0 0 722 561" style="enable-background:new 0 0 722 561;" xml:space="preserve">
<style type="text/css">
	.st0{fill:#E7E5EA;}
</style>
<g>
	<g>
		<path class="st0" d="M721.8,561.4c-45.6,0-90.2,0-136,0c0-88.6,0-176.3,0-264c-1.1-0.5-2.2-1-3.4-1.4
			c-59.4,88.7-118.7,177.4-177.9,265.8c-30.1,0-59.2,0-88.9,0C256.8,473.2,197.9,384.7,139,296.2c-0.9,0.2-1.8,0.4-2.7,0.6
			c0,87.8,0,175.5,0,264.4c-46.3,0-90.8,0-136.6,0c0-186.2,0-372.7,0-560.2C35.2,1,70.9,1,108,1c83.3,123.8,167.2,248.5,252.1,374.6
			C444.8,249.6,528.7,125.1,612.5,0.5c36.5,0,72.3,0,109.3,0C721.8,187.4,721.8,373.8,721.8,561.4z"/>
	</g>
</g>
</svg>
